<svg xmlns="http://www.w3.org/2000/svg" width="256" height="256" viewBox="0 0 100 100"><rect width="100" height="100" rx="20" fill="#171717"></rect><path fill="#fff" d="M70.35 28.15L55.25 28.15L55.25 79.85Q54.55 80.15 53.20 80.40Q51.85 80.65 50.35 80.65L50.35 80.65Q47.25 80.65 45.95 79.50Q44.65 78.35 44.65 75.65L44.65 75.65L44.65 28.15L26.95 28.15Q26.45 27.45 26.10 26.35Q25.75 25.25 25.75 23.85L25.75 23.85Q25.75 21.65 26.80 20.50Q27.85 19.35 29.65 19.35L29.65 19.35L73.15 19.35Q73.55 19.95 73.90 21.05Q74.25 22.15 74.25 23.45L74.25 23.45Q74.25 28.15 70.35 28.15L70.35 28.15Z"></path></svg>